<?xml version="1.0" standalone="no"?>
<!DOCTYPE svg PUBLIC "-//W3C//DTD SVG 20010904//EN"
 "http://www.w3.org/TR/2001/REC-SVG-20010904/DTD/svg10.dtd">
<svg version="1.0" xmlns="http://www.w3.org/2000/svg"
 width="1080.000000pt" height="1080.000000pt" viewBox="0 0 1080.000000 1080.000000"
 preserveAspectRatio="xMidYMid meet">

<g transform="translate(0.000000,1080.000000) scale(0.100000,-0.100000)"
fill="#000000" stroke="none">
<path d="M5135 10223 c-924 -59 -1795 -364 -2530 -886 -801 -568 -1427 -1389
-1741 -2285 -188 -536 -276 -994 -291 -1527 -31 -1135 347 -2258 1062 -3148
514 -640 1182 -1138 1935 -1444 679 -275 1408 -397 2115 -353 1052 66 2059
474 2860 1160 874 747 1450 1787 1629 2940 38 245 50 405 50 695 0 283 -9 436
-40 660 -157 1152 -712 2199 -1575 2969 -887 792 -2059 1235 -3239 1224 -102
-1 -207 -3 -235 -5z m740 -297 c175 -21 310 -41 430 -66 1603 -329 2894 -1474
3410 -3025 285 -854 311 -1768 75 -2627 -110 -401 -283 -812 -477 -1133 -68
-112 -44 -98 -283 -170 -369 -112 -737 -184 -1175 -231 -198 -21 -698 -25
-890 -6 -431 42 -737 103 -1090 219 -313 102 -649 261 -865 407 l-45 30 32
-44 c117 -159 301 -338 473 -459 382 -271 842 -424 1431 -477 242 -21 673 -14
934 16 336 39 627 93 950 175 94 23 172 41 173 40 12 -11 -311 -141 -470 -189
-244 -74 -508 -129 -776 -164 -108 -13 -213 -17 -502 -17 -394 0 -513 11 -817
70 -708 138 -1301 482 -1659 962 -290 389 -435 847 -437 1383 -1 280 33 514
114 767 299 934 1020 1449 1818 1298 55 -11 -120 47 -228 76 -201 52 -336 69
-541 70 -151 0 -211 -5 -330 -25 -449 -76 -857 -311 -1169 -671 -481 -557
-690 -1326 -560 -2059 99 -559 401 -1073 849 -1445 101 -84 282 -218 308 -228
6 -3 12 -9 12 -14 0 -13 -228 103 -328 168 -564 363 -959 966 -1087 1657 -127
690 30 1362 442 1893 84 109 282 308 386 388 l78 60 -33 3 c-48 5 -217 -16
-353 -44 -631 -131 -1149 -542 -1484 -1176 -172 -325 -290 -703 -353 -1128
-20 -137 -23 -193 -23 -490 0 -353 7 -445 51 -690 32 -176 64 -298 120 -465
25 -76 44 -139 41 -141 -4 -5 -134 262 -170 351 -120 291 -209 619 -252 925
-26 180 -31 609 -10 790 77 673 350 1262 810 1752 272 290 646 552 1010 708
627 268 1307 337 2020 204 485 -91 1042 -310 1488 -585 42 -26 77 -45 77 -42
0 13 -193 244 -282 338 -337 357 -773 658 -1218 840 -246 100 -505 176 -740
214 -255 42 -310 46 -625 46 -285 -1 -324 -3 -483 -28 -221 -34 -371 -68 -552
-124 -732 -226 -1386 -699 -1832 -1324 -155 -217 -302 -475 -369 -646 -13 -35
-26 -63 -30 -63 -11 0 28 303 62 480 149 764 481 1466 978 2065 112 134 400
423 536 538 735 618 1600 981 2559 1073 182 17 689 11 871 -10z"/>
<path d="M4969 5440 c-187 -18 -339 -107 -404 -237 -26 -51 -29 -69 -30 -148
0 -77 4 -98 27 -147 77 -164 274 -256 528 -245 240 10 411 107 471 266 17 46
20 72 17 141 -5 105 -32 163 -109 236 -112 105 -290 153 -500 134z m256 -169
c100 -44 155 -122 155 -218 -1 -154 -119 -246 -320 -247 -158 0 -260 49 -306
147 -56 120 -8 249 113 308 69 33 99 38 208 35 77 -2 111 -8 150 -25z"/>
<path d="M5918 5425 c-111 -28 -193 -84 -217 -148 -17 -45 -13 -118 9 -154 44
-73 119 -100 368 -133 166 -22 244 -48 250 -83 8 -40 -8 -65 -55 -88 -41 -20
-64 -24 -148 -23 -147 0 -294 46 -362 114 l-27 27 -40 -55 c-47 -65 -45 -70
44 -124 217 -130 564 -129 715 4 51 45 79 108 71 162 -19 124 -104 168 -398
206 -162 22 -222 39 -242 72 -17 28 9 67 58 89 103 45 256 33 384 -31 42 -22
77 -38 78 -37 0 1 15 26 32 54 l31 52 -46 27 c-100 59 -167 76 -313 80 -95 3
-152 -1 -192 -11z"/>
<path d="M6610 5050 l0 -370 100 0 100 0 0 160 0 160 245 0 245 0 0 -160 0
-160 100 0 100 0 0 370 0 370 -100 0 -100 0 0 -140 0 -140 -245 0 -245 0 0
140 0 140 -100 0 -100 0 0 -370z"/>
<path d="M7620 5050 l0 -370 95 0 95 0 2 276 3 277 235 -276 235 -276 123 0
122 -1 0 370 0 370 -95 0 -95 0 0 -270 c0 -148 -3 -270 -7 -269 -5 0 -111 122
-238 270 l-230 269 -122 0 -123 0 0 -370z"/>
<path d="M8640 5050 l0 -370 95 0 95 0 0 275 c0 151 4 275 8 275 4 0 113 -124
242 -275 l235 -275 122 0 123 0 0 370 0 370 -95 0 -95 0 0 -270 c0 -148 -3
-270 -7 -270 -5 0 -111 121 -238 270 l-230 269 -127 1 -128 0 0 -370z"/>
<path d="M9903 483 c-18 -7 -16 -23 2 -23 11 0 15 -11 15 -40 0 -29 -4 -40
-15 -40 -8 0 -15 -4 -15 -10 0 -5 18 -10 40 -10 22 0 40 5 40 10 0 6 -4 10
-10 10 -5 0 -10 25 -10 55 0 56 -8 64 -47 48z"/>
<path d="M9725 461 c-28 -6 -30 -9 -30 -51 0 -25 -4 -48 -9 -51 -5 -4 -6 -14
-3 -23 8 -21 70 -21 87 -1 18 22 4 45 -27 45 l-28 1 27 14 c20 11 26 22 26 45
-1 16 -4 29 -7 29 -3 -1 -19 -4 -36 -8z m20 -30 c7 -12 -12 -24 -25 -16 -11 7
-4 25 10 25 5 0 11 -4 15 -9z m5 -81 c0 -5 -9 -10 -20 -10 -11 0 -20 5 -20 10
0 6 9 10 20 10 11 0 20 -4 20 -10z"/>
<path d="M9570 389 c0 -55 3 -69 15 -69 9 0 15 9 15 23 0 18 5 23 27 22 21 0
30 6 37 28 15 41 -2 62 -53 64 l-41 2 0 -70z m65 21 c0 -13 -6 -25 -12 -27
-16 -6 -27 21 -19 43 9 23 31 11 31 -16z"/>
<path d="M9797 384 c-8 -8 1 -24 14 -24 5 0 9 7 9 15 0 15 -12 20 -23 9z"/>
</g>
</svg>
